<svg width="200" height="50" viewBox="0 0 200 50" fill="none" xmlns="http://www.w3.org/2000/svg">
<path d="M32.5085 10.0854L99.3019 9.47815V17.5237L90.4046 39.105L45.0307 42.6723L26.4502 37.258L32.5085 10.0854Z" fill="white"/>
<path d="M58.5922 44.8229C48.4021 44.8229 38.2373 44.8229 28.0472 44.8229C26.7291 44.8229 25.487 44.5446 24.3717 43.735C23.1296 42.8495 22.3945 41.6097 22.1156 40.0917C21.8622 38.852 22.0649 37.6629 22.3438 36.4484C23.231 32.8305 24.0675 29.2378 24.9547 25.6199C25.8672 21.8248 26.7798 18.0297 27.6923 14.26C27.9965 13.0202 28.2753 11.7552 28.6302 10.5408C28.9851 9.30107 29.5681 8.18786 30.43 7.22644C31.3172 6.23972 32.4071 5.60721 33.6492 5.2783C34.359 5.1012 35.0687 5 35.8039 5C56.2094 5 76.615 5 97.0459 5C98.4655 5 99.7836 5.40481 100.899 6.34092C101.913 7.20114 102.521 8.28906 102.8 9.60468C103.054 10.8444 102.901 12.0588 102.623 13.2732C101.888 16.4105 101.152 19.5225 100.417 22.6597C99.6568 25.9235 98.8964 29.1872 98.1359 32.4257C97.629 34.5509 97.1473 36.6509 96.6404 38.7761C96.3362 40.0158 95.8292 41.1796 95.0434 42.1916C94.1055 43.4314 92.8888 44.1904 91.4186 44.5699C90.6328 44.7723 89.8216 44.8229 89.0104 44.8229C78.8964 44.8229 68.7823 44.8229 58.6682 44.8229M65.3096 21.0911C65.3096 21.0658 65.3349 21.0405 65.3603 21.0405C68.0472 18.8899 70.7341 16.7394 73.4211 14.5636C73.6239 14.4118 73.8013 14.2347 73.7253 13.9564C73.6492 13.6527 73.3704 13.6274 73.1423 13.6274C73.1423 13.6274 73.1169 13.6274 73.0916 13.6274C72.2297 13.6274 71.3679 13.6274 70.5314 13.6274C70.3032 13.6274 70.0244 13.7287 69.8216 13.8805C68.2753 15.1202 66.7544 16.3599 65.2335 17.6249C64.7519 18.0044 64.2956 18.3839 63.814 18.7887C63.7633 18.7381 63.7379 18.6875 63.7126 18.6369C62.724 17.1189 61.7101 15.6262 60.7215 14.1082C60.4933 13.754 60.2145 13.6274 59.8089 13.6274C58.7189 13.6274 57.6036 13.6274 56.5136 13.6274C56.3869 13.6274 56.2601 13.6274 56.1334 13.6274C55.5757 13.7034 55.3729 14.1588 55.6771 14.6142C56.8178 16.284 57.9585 17.9791 59.0738 19.649C59.5047 20.2815 59.9357 20.9393 60.3919 21.5971C60.3159 21.6477 60.2652 21.6983 60.2145 21.7489C58.212 23.3175 56.2348 24.8861 54.2322 26.4548C54.1308 26.5307 54.0041 26.5813 53.8774 26.5813C52.8634 26.5813 51.8748 26.5813 50.8609 26.5813C50.8102 26.5813 50.7341 26.5813 50.6834 26.5813C50.8355 26.1006 51.013 25.6705 51.1144 25.2151C51.672 22.9633 52.2044 20.6863 52.7367 18.4092C52.9141 17.6502 53.1169 16.8912 53.1423 16.0816C53.1676 14.9684 52.7113 14.2347 51.6974 13.8805C50.9369 13.6274 50.1258 13.5768 49.3146 13.5768C44.9547 13.5768 40.5947 13.5768 36.2348 13.5768C36.1587 13.5768 36.108 13.5768 36.032 13.5768C35.6771 13.6021 35.3983 13.8299 35.2969 14.1841C35.1955 14.5636 35.1194 14.9431 35.0434 15.3479C34.9673 15.7021 35.1194 15.9298 35.4743 15.9804C35.5504 15.9804 35.6264 15.9804 35.7025 15.9804C39.885 15.9804 44.0675 15.9804 48.25 15.9804C48.3767 15.9804 48.4781 15.9804 48.6049 15.9804C48.9344 16.0057 49.0358 16.1322 49.0104 16.4611C49.0104 16.5876 48.9851 16.7394 48.9597 16.8659C48.3514 19.4972 47.7177 22.1284 47.1093 24.7596C47.0079 25.2151 46.8812 25.6452 46.7544 26.1006C46.6784 26.3789 46.5009 26.5813 46.1714 26.5813C46.0447 26.5813 45.9433 26.6066 45.8165 26.6066C45.0054 26.6066 44.2196 26.6066 43.4084 26.6066C41.9889 26.6066 40.544 26.6066 39.1245 26.6066C38.6682 26.6066 38.4148 26.8343 38.288 27.2644C38.1866 27.6439 38.1106 28.0234 38.0345 28.4029C37.9838 28.6812 38.0852 28.8836 38.3641 28.9595C38.4654 28.9848 38.5922 29.0101 38.7189 29.0101C41.0257 29.0101 43.3324 29.0101 45.6137 29.0101C46.1968 29.0101 46.7798 28.9595 47.3374 28.8836C47.7684 28.833 48.1993 28.7065 48.6302 28.6053C48.7063 28.9089 48.8584 29.0354 49.1879 29.0354C51.1651 29.0354 53.1676 29.0354 55.1448 29.0354C55.3729 29.0354 55.6011 28.9342 55.7785 28.8077C57.5276 27.4921 59.2513 26.1512 60.975 24.8102C61.3552 24.5066 61.7608 24.203 62.1663 23.8994C62.217 23.9753 62.2424 24.0006 62.2677 24.0512C63.231 25.5946 64.1942 27.1126 65.1321 28.6559C65.3096 28.9342 65.5123 29.0354 65.8165 29.0354C66.9319 29.0354 68.0472 29.0354 69.1372 29.0354C69.2639 29.0354 69.416 29.0354 69.5428 28.9848C70.0244 28.8583 70.1765 28.4535 69.8976 28.0234C69.1118 26.8849 68.3514 25.7211 67.5656 24.5825C66.7798 23.444 66.0193 22.2802 65.2335 21.1417M83.231 22.0778C83.231 22.1537 83.231 22.2296 83.2056 22.2802C82.7494 24.2789 82.2677 26.2777 81.7861 28.2764C81.6847 28.7318 81.8368 28.9848 82.2931 28.9848C83.231 28.9848 84.1689 28.9848 85.1068 28.9848C85.5377 28.9848 85.8419 28.7065 85.9433 28.2764C86.3995 26.303 86.8812 24.3295 87.3121 22.3561C87.3628 22.1284 87.4642 22.0778 87.667 22.0778C89.7202 22.0778 91.7734 22.0778 93.8267 22.0778C93.9534 22.0778 94.0802 22.0778 94.2069 22.0778C94.5111 22.0272 94.7392 21.7742 94.8153 21.4706C94.9167 21.0911 95.0181 20.6863 95.0941 20.3068C95.0941 20.1803 95.0941 19.9779 94.9927 19.902C94.866 19.8008 94.6632 19.7249 94.5111 19.7249C92.4072 19.7249 90.3032 19.7249 88.1993 19.7249H87.9205C87.9205 19.649 87.9205 19.5984 87.9205 19.5478C88.326 17.8273 88.7316 16.1069 89.1372 14.4118C89.2639 13.9311 89.0612 13.6528 88.5795 13.6274C87.667 13.6274 86.7798 13.6274 85.8672 13.6274C85.3856 13.6274 85.0814 13.9058 84.98 14.3865C84.5745 16.1069 84.1689 17.8273 83.7633 19.5478C83.7633 19.649 83.7126 19.7249 83.5859 19.7249C81.9382 19.7249 80.2905 19.7249 78.6429 19.7249C78.3641 19.7249 78.1866 19.5478 78.1613 19.2694C78.1613 19.1176 78.1613 18.9405 78.1613 18.814C78.4908 17.3466 78.8457 15.8539 79.2006 14.3865C79.302 13.9311 79.0992 13.6527 78.6682 13.6527C77.7557 13.6527 76.8685 13.6527 75.9559 13.6527C75.4997 13.6527 75.1955 13.9058 75.0941 14.3612C74.7392 15.8792 74.359 17.3972 74.0041 18.9152C73.8774 19.4466 73.776 19.9779 73.7506 20.5092C73.7253 21.2935 74.2322 21.926 74.9674 22.0778C75.2208 22.1284 75.4743 22.1284 75.7278 22.1284C78.1106 22.1284 80.468 22.1284 82.8508 22.1284H83.1549L83.231 22.0778ZM32.5339 34.4497C33.0155 34.4497 33.4718 34.4497 33.9534 34.4497C34.3336 34.4497 34.6378 34.1714 34.7392 33.8172C35.8292 29.1872 36.9192 24.5572 38.0092 19.9526C38.1359 19.4466 37.9078 19.1682 37.4008 19.1429C36.5643 19.1429 35.7532 19.1429 34.9167 19.1429C34.359 19.1429 34.0548 19.3959 33.9281 19.9779C33.2943 22.7356 32.6353 25.4681 31.9762 28.2258C31.5453 30.098 31.089 31.945 30.6581 33.8172C30.5567 34.222 30.7341 34.475 31.1651 34.475C31.6213 34.475 32.103 34.475 32.5592 34.475M64.98 37.0051H65.2589C66.5009 37.0051 67.743 37.0051 68.9851 37.0051C69.6188 37.0051 70.1004 36.6002 70.2272 36.0183C70.4553 34.981 70.6581 33.969 70.8862 32.9317C71.013 32.3245 70.7088 31.8944 70.1004 31.8944C68.6556 31.8944 67.2107 31.8944 65.7658 31.8944C65.1575 31.8944 64.7012 32.2992 64.5744 32.9317C64.321 34.0702 64.0928 35.2087 63.8393 36.3472C63.7126 36.9798 63.5859 37.6123 63.4591 38.2448C64.2703 38.3713 64.8026 37.9412 65.0054 37.0051M43.89 31.8944C43.8393 31.8944 43.814 31.8944 43.7886 31.8944C42.0396 31.8944 40.2652 31.8944 38.5161 31.8944C37.9078 31.8944 37.4769 32.3245 37.3248 32.957C37.122 33.969 36.8938 34.9557 36.6911 35.9677C36.5643 36.5749 36.8685 37.0051 37.4515 37.0051C39.1752 37.0051 40.8989 37.0051 42.6226 37.0051C42.7494 37.0051 42.8 36.9545 42.8254 36.828C42.9521 36.1954 43.1042 35.5629 43.231 34.9304C43.4338 33.9437 43.6619 32.9317 43.8647 31.9197M60.2652 31.8691H58.1359C57.4769 31.8691 57.0206 32.2739 56.8685 32.9317C56.6657 33.9437 56.4629 34.9557 56.2348 35.9424C56.108 36.5496 56.4122 36.9545 56.9952 36.9798C58.4401 36.9798 59.9103 36.9798 61.3552 36.9798C61.9382 36.9798 62.4198 36.5749 62.5466 35.993C62.7747 34.9304 63.0028 33.8931 63.231 32.8305C63.2563 32.704 63.231 32.5522 63.231 32.4257C63.1296 32.0462 62.8507 31.8691 62.4198 31.8691C61.7101 31.8691 61.0003 31.8691 60.3159 31.8691M81.2284 37.0051C81.9382 37.0051 82.648 37.0051 83.3324 37.0051C83.9661 37.0051 84.4477 36.6256 84.5744 35.993C84.8026 34.981 85.0054 33.9437 85.2082 32.9317C85.3349 32.2992 85.0561 31.8944 84.4477 31.8944C83.0028 31.8944 81.558 31.8944 80.1131 31.8944C79.5047 31.8944 79.0485 32.2992 78.8964 32.9064C78.6936 33.8172 78.5161 34.728 78.3134 35.6388C78.3134 35.74 78.288 35.8412 78.2627 35.9424C78.1359 36.5749 78.4401 36.9798 79.0738 36.9798C79.7836 36.9798 80.4933 36.9798 81.2031 36.9798M45.6391 35.6894C45.6391 35.6388 45.6391 35.5882 45.6391 35.5376C45.8165 34.7533 45.9686 33.969 46.1461 33.21C46.1461 33.1341 46.1714 33.0582 46.1968 32.9823C46.3488 32.2739 46.0193 31.8438 45.3096 31.8691C45.1828 31.8691 45.1321 31.8944 45.1068 32.0462C44.8279 33.3618 44.5491 34.6774 44.2956 35.9677C44.1689 36.5749 44.4731 36.9798 45.0814 36.9798C46.5263 36.9798 47.9712 36.9798 49.416 36.9798C50.0244 36.9798 50.506 36.5496 50.6328 35.9424C50.8355 34.9304 51.0637 33.9184 51.2665 32.9064C51.3425 32.5775 51.3932 32.2486 51.4693 31.9197C50.7341 31.7932 50.1258 32.198 49.9737 32.9064C49.8723 33.4124 49.7709 33.9184 49.6442 34.4244C49.5428 34.8545 49.4667 35.2846 49.3653 35.6894H45.6391ZM87.8698 31.8944C87.8698 31.6667 87.9458 31.4643 87.9205 31.2619C87.8698 30.8317 87.4895 30.604 86.9826 30.6293C86.8558 30.6293 86.8305 30.6799 86.8051 30.7811C86.4502 32.5522 86.07 34.2979 85.7151 36.0689C85.6137 36.5243 85.8672 36.9292 86.2982 36.9545C86.8051 37.0051 87.3374 37.0051 87.8698 36.9545C88.5035 36.9039 88.9091 36.3472 88.9344 35.6894H87.1093C87.1093 35.6388 87.1093 35.6135 87.1093 35.5882C87.2614 34.8292 87.4388 34.0702 87.5909 33.2859C87.5909 33.2353 87.6923 33.1847 87.7684 33.1847C88.0219 33.1847 88.3007 33.1847 88.5542 33.1847C89.2132 33.1847 89.7456 32.6028 89.7456 31.8944H87.9205H87.8698ZM53.5478 33.1847C53.8774 33.1847 54.2069 33.1847 54.5364 33.1847C55.1448 33.1847 55.7025 32.5522 55.6771 31.8944H53.852C53.852 31.7932 53.8774 31.7173 53.9027 31.6161C53.9788 31.186 53.8267 30.8064 53.4718 30.7052C53.269 30.6293 53.0409 30.6293 52.8634 30.6546C52.7874 30.6546 52.7874 30.933 52.7367 31.0848C52.7367 31.0848 52.7367 31.1354 52.7367 31.1607C52.4071 32.7799 52.0523 34.3738 51.7227 35.993C51.596 36.5496 51.8495 36.9545 52.3818 37.0051C52.8634 37.0557 53.345 37.0557 53.8267 37.0051C54.4604 36.9292 54.9167 36.3725 54.8913 35.7147H53.0409C53.2183 34.8545 53.3957 34.0449 53.5732 33.21M75.1955 35.6894C75.3983 34.7533 75.6011 33.8172 75.7785 32.9064C75.8799 32.4763 75.7278 32.0968 75.3729 31.9703C75.2208 31.9197 75.0434 31.9197 74.866 31.8944C74.7392 31.8944 74.6885 31.945 74.6632 32.0715C74.3843 33.3871 74.1055 34.7027 73.8267 36.0183C73.7253 36.5749 73.9788 36.9545 74.5111 37.0051C74.9674 37.0304 75.449 37.0304 75.9052 37.0051C76.5643 36.9545 77.0206 36.3978 77.0459 35.7147H75.1955V35.6894ZM72.103 33.7919C71.7988 33.7919 71.7988 33.7919 71.7227 34.0955C71.596 34.7027 71.4693 35.3099 71.3425 35.9171C71.1904 36.6002 71.4946 36.9798 72.179 37.0051C72.3565 37.0051 72.4072 36.9545 72.4578 36.7774C72.5846 36.1195 72.7367 35.4617 72.8634 34.8039C72.9902 34.222 72.6606 33.8172 72.103 33.8172M71.9509 33.1594C71.9762 33.1594 72.0016 33.1594 72.0016 33.1594C72.2551 33.1594 72.4832 33.1594 72.7367 33.1594C73.2183 33.1594 73.2183 33.1594 73.3197 32.6787C73.3704 32.4257 73.4211 32.1474 73.4718 31.8691H72.2044C72.103 32.2992 72.0269 32.704 71.9255 33.1341" fill="black"/>
<path d="M69.5427 33.1847C69.3653 34.0196 69.1878 34.8545 69.0104 35.6894H65.2588C65.4362 34.8545 65.6137 34.0196 65.7911 33.1847H69.5427Z" fill="black"/>
<path d="M38.0605 35.6894C38.238 34.8292 38.4154 34.0196 38.5929 33.1847H42.3445C42.2684 33.4883 42.2177 33.7919 42.1417 34.0955C42.0403 34.5762 41.9389 35.0822 41.8375 35.5629C41.8375 35.6135 41.7361 35.6894 41.6854 35.6894C40.4687 35.6894 39.2773 35.6894 38.0605 35.6894Z" fill="black"/>
<path d="M57.5781 35.6894C57.7556 34.8292 57.933 34.0196 58.1104 33.1847H61.862C61.786 33.5895 61.7099 33.969 61.6085 34.3485C61.5325 34.7533 61.4311 35.1328 61.3551 35.5376C61.3551 35.5882 61.2537 35.6894 61.203 35.6894C60.0116 35.6894 58.8202 35.6894 57.5781 35.6894Z" fill="black"/>
<path d="M79.6064 35.6894C79.7839 34.8545 79.9613 34.0196 80.1388 33.1847H83.8903C83.8143 33.5895 83.7383 33.9943 83.6369 34.3738C83.5608 34.7533 83.4848 35.1328 83.3834 35.5376C83.3834 35.5882 83.3073 35.6894 83.2566 35.6894C82.0399 35.6894 80.8485 35.6894 79.6064 35.6894Z" fill="black"/>
<path d="M178.398 8.62995C178.119 7.31433 177.511 6.20111 176.497 5.34089C175.382 4.37948 174.064 3.99997 172.644 3.99997C152.137 3.99997 154.735 4.00217 150.88 4.0036C138.865 4.0036 126.85 4.0036 114.835 4.0036C114.1 4.0036 113.39 4.1048 112.68 4.28191C111.413 4.61081 110.323 5.24332 109.435 6.25534C108.574 7.21676 107.991 8.35528 107.636 9.595C107.281 10.8347 107.002 12.0744 106.698 13.3395C105.785 17.1345 104.873 20.9549 103.96 24.75C103.098 28.3679 102.236 32.0112 101.349 35.6292C101.045 36.8436 100.868 38.0327 101.121 39.2724C101.425 40.7904 102.16 42.0302 103.402 42.941C104.518 43.7506 105.76 44.0289 107.103 44.0289H137.8C139.6 44.0289 141.375 44.0289 143.174 44.0289L157.219 44.0275C167.383 44.0275 154.418 44.0253 164.583 44.0253C165.394 44.0253 166.205 43.9747 167.017 43.7723C168.487 43.3928 169.704 42.6337 170.642 41.394C171.427 40.3567 171.934 39.2182 172.238 37.9532C172.771 35.8279 173.252 33.7027 173.759 31.5774C174.52 28.3137 175.306 25.0246 176.066 21.7609C176.801 18.6236 177.536 15.4611 178.297 12.3238C178.576 11.1094 178.753 9.89497 178.474 8.65525L178.398 8.62995Z" fill="black"/>
<path d="M119.432 11.0241L118.823 13.9201H122.568C122.834 13.9201 123.042 13.9841 123.192 14.1121C123.341 14.2294 123.415 14.3947 123.415 14.6081C123.415 14.6827 123.41 14.7361 123.399 14.7681V14.8001C123.25 15.3974 122.845 15.6694 122.184 15.6161H118.472L117.752 18.9921C117.656 19.6641 117.288 20.0001 116.648 20.0001H116.503C116.279 20.0001 116.087 19.9254 115.927 19.7761C115.767 19.6161 115.688 19.4294 115.688 19.2161C115.688 19.0987 115.703 18.9654 115.735 18.8161L117.528 10.3361C117.645 9.61072 118.066 9.27472 118.792 9.32806H123.783C124.359 9.32806 124.648 9.56272 124.648 10.0321C124.648 10.0961 124.642 10.1441 124.632 10.1761L124.616 10.2081C124.488 10.8054 124.087 11.0774 123.415 11.0241H119.432Z" fill="white"/>
<path d="M126.208 18.2081H130.096C130.704 18.2081 131.008 18.4534 131.008 18.9441C131.008 19.0187 131.003 19.0721 130.992 19.1041L130.976 19.1681C130.838 19.7761 130.432 20.0534 129.76 20.0001H124.992C124.683 20.0001 124.438 19.9307 124.256 19.7921C124.075 19.6534 123.984 19.4667 123.984 19.2321C123.984 19.1041 124 18.9654 124.032 18.8161L125.824 10.3361C125.92 9.66406 126.288 9.32806 126.928 9.32806H127.072C127.296 9.32806 127.488 9.40806 127.648 9.56806C127.808 9.71739 127.888 9.89872 127.888 10.1121C127.888 10.2401 127.872 10.3734 127.84 10.5121L126.208 18.2081Z" fill="white"/>
<path d="M135.887 10.5121L134.095 18.9921C133.999 19.6641 133.631 20.0001 132.991 20.0001H132.847C132.623 20.0001 132.431 19.9254 132.271 19.7761C132.111 19.6161 132.031 19.4294 132.031 19.2161C132.031 19.0987 132.047 18.9654 132.079 18.8161L133.871 10.3361C133.967 9.66406 134.335 9.32806 134.975 9.32806H135.119C135.333 9.32806 135.519 9.40806 135.679 9.56806C135.85 9.71739 135.935 9.89339 135.935 10.0961C135.935 10.2347 135.919 10.3734 135.887 10.5121Z" fill="white"/>
<path d="M143.505 15.8561H141.809C141.19 15.8561 140.881 15.6054 140.881 15.1041C140.881 14.5921 141.19 14.3361 141.809 14.3361H144.625C145.318 14.3361 145.665 14.6187 145.665 15.1841C145.665 15.4081 145.547 15.9894 145.313 16.9281C145.131 17.6534 144.95 18.1867 144.769 18.5281C144.587 18.8694 144.326 19.1627 143.985 19.4081C143.59 19.6854 143.115 19.8721 142.561 19.9681C142.006 20.0534 141.115 20.0961 139.889 20.0961C139.057 20.0961 138.422 20.0534 137.985 19.9681C137.558 19.8827 137.201 19.7334 136.913 19.5201C136.315 19.0721 136.017 18.3947 136.017 17.4881C136.017 17.1894 136.107 16.5707 136.289 15.6321C136.47 14.6827 136.673 13.7654 136.897 12.8801C137.27 11.4507 137.857 10.4641 138.657 9.92006C139.094 9.64272 139.574 9.46139 140.097 9.37606C140.619 9.28006 141.505 9.23206 142.753 9.23206C143.969 9.23206 144.785 9.31206 145.201 9.47206C146.001 9.76006 146.401 10.3521 146.401 11.2481C146.401 12.1121 146.038 12.5441 145.313 12.5441H145.201C144.977 12.5334 144.79 12.4641 144.641 12.3361C144.502 12.2081 144.438 12.0534 144.449 11.8721C144.427 11.5841 144.406 11.4027 144.385 11.3281C144.363 11.2534 144.299 11.1894 144.193 11.1361C143.979 11.0187 143.195 10.9601 141.841 10.9601C140.838 10.9601 140.145 11.1147 139.761 11.4241C139.387 11.7227 139.089 12.3734 138.865 13.3761C138.374 15.5094 138.129 16.8107 138.129 17.2801C138.129 17.7281 138.289 18.0267 138.609 18.1761C138.939 18.3147 139.601 18.3841 140.593 18.3841C141.638 18.3841 142.337 18.2294 142.689 17.9201C143.051 17.6107 143.323 16.9227 143.505 15.8561Z" fill="white"/>
<path d="M153.916 15.4401H148.972L148.22 18.9921C148.124 19.6641 147.756 20.0001 147.116 20.0001H146.972C146.748 20.0001 146.556 19.9254 146.396 19.7761C146.236 19.6161 146.156 19.4294 146.156 19.2161C146.156 19.0987 146.172 18.9654 146.204 18.8161L147.996 10.3521C148.092 9.66939 148.46 9.32806 149.1 9.32806H149.244C149.458 9.32806 149.644 9.40806 149.804 9.56806C149.975 9.71739 150.06 9.89872 150.06 10.1121C150.06 10.2401 150.044 10.3734 150.012 10.5121L149.34 13.6961H154.284L155.004 10.3361C155.1 9.66406 155.468 9.32806 156.108 9.32806H156.236C156.46 9.32806 156.652 9.40806 156.812 9.56806C156.983 9.71739 157.068 9.89872 157.068 10.1121C157.068 10.2401 157.052 10.3734 157.02 10.5121L155.212 18.9921C155.116 19.6641 154.748 20.0001 154.108 20.0001H153.98C153.756 20.0001 153.559 19.9254 153.388 19.7761C153.228 19.6161 153.148 19.4294 153.148 19.2161C153.148 19.0987 153.164 18.9654 153.196 18.8161L153.916 15.4401Z" fill="white"/>
<path d="M162.499 11.1201L160.819 18.9921C160.723 19.6641 160.36 20.0001 159.731 20.0001H159.587C159.363 20.0001 159.171 19.9254 159.011 19.7761C158.851 19.6161 158.771 19.4294 158.771 19.2161C158.771 19.1414 158.782 19.0081 158.803 18.8161L160.451 11.1201H158.451C157.843 11.1201 157.539 10.8747 157.539 10.3841C157.539 10.3094 157.544 10.2561 157.555 10.2241L157.571 10.1601C157.71 9.55206 158.115 9.27472 158.787 9.32806H164.947C165.555 9.32806 165.859 9.57339 165.859 10.0641C165.859 10.1387 165.854 10.1921 165.843 10.2241L165.827 10.3041C165.699 10.9014 165.294 11.1734 164.611 11.1201H162.499Z" fill="white"/>
<path d="M112.588 27.3281H116.78C117.783 27.3281 118.492 27.4667 118.908 27.7441C119.452 28.0961 119.724 28.6081 119.724 29.2801C119.724 29.8027 119.628 30.4107 119.436 31.1041C119.255 31.7867 119.047 32.2934 118.812 32.6241C118.631 32.8801 118.412 33.0721 118.156 33.2001C117.911 33.3174 117.474 33.4401 116.844 33.5681C117.388 33.6321 117.778 33.7654 118.012 33.9681C118.3 34.2454 118.444 34.5921 118.444 35.0081C118.444 35.1894 118.418 35.4134 118.364 35.6801L118.076 36.9921C117.98 37.6641 117.612 38.0001 116.972 38.0001H116.828C116.604 38.0001 116.407 37.9254 116.236 37.7761C116.076 37.6161 115.996 37.4294 115.996 37.2161C115.996 37.0987 116.012 36.9654 116.044 36.8161L116.204 36.0801C116.268 35.7814 116.3 35.5414 116.3 35.3601C116.3 35.0294 116.199 34.7947 115.996 34.6561C115.794 34.5174 115.447 34.4481 114.956 34.4481H112.076L111.548 36.9921C111.452 37.6641 111.084 38.0001 110.444 38.0001H110.3C110.076 38.0001 109.884 37.9254 109.724 37.7761C109.564 37.6161 109.484 37.4294 109.484 37.2161C109.484 37.0987 109.5 36.9654 109.532 36.8161L111.324 28.3361C111.442 27.6107 111.863 27.2747 112.588 27.3281ZM112.46 32.7041H115.324C116.231 32.7041 116.834 32.4054 117.132 31.8081C117.218 31.6481 117.308 31.3441 117.404 30.8961C117.511 30.4481 117.564 30.1121 117.564 29.8881C117.564 29.5894 117.463 29.3814 117.26 29.2641C117.068 29.1467 116.722 29.0881 116.22 29.0881H113.228L112.46 32.7041Z" fill="white"/>
<path d="M123.192 29.0241L122.616 31.7921H126.616C127.224 31.7921 127.528 32.0427 127.528 32.5441C127.528 33.0454 127.224 33.2961 126.616 33.2961H122.296L121.656 36.3041H125.912C126.488 36.3041 126.776 36.5387 126.776 37.0081C126.776 37.0827 126.771 37.1307 126.76 37.1521V37.1841C126.611 37.7814 126.206 38.0534 125.544 38.0001H120.456C120.147 38.0001 119.902 37.9307 119.72 37.7921C119.539 37.6534 119.448 37.4667 119.448 37.2321C119.448 37.1041 119.464 36.9654 119.496 36.8161L121.288 28.3361C121.395 27.6214 121.816 27.2854 122.552 27.3281H127.784C128.35 27.3281 128.632 27.5627 128.632 28.0321C128.632 28.0961 128.627 28.1441 128.616 28.1761V28.2081C128.488 28.8054 128.083 29.0774 127.4 29.0241H123.192Z" fill="white"/>
<path d="M131.14 28.4001L131.732 33.3761C131.828 34.3041 131.902 35.3014 131.956 36.3681C132.745 34.7894 133.246 33.7921 133.46 33.3761L136.244 28.2241C136.404 27.8934 136.58 27.6641 136.772 27.5361C136.974 27.3974 137.241 27.3281 137.572 27.3281H137.796C137.966 27.3281 138.116 27.3921 138.244 27.5201C138.372 27.6374 138.436 27.7814 138.436 27.9521C138.436 28.0801 138.388 28.2294 138.292 28.4001L133.636 37.1041C133.476 37.4454 133.284 37.6854 133.06 37.8241C132.836 37.9627 132.532 38.0214 132.148 38.0001H131.14C130.777 38.0214 130.489 37.9414 130.276 37.7601C130.073 37.5681 129.961 37.2854 129.94 36.9121L129.044 28.5121C129.033 28.4587 129.028 28.3734 129.028 28.2561C129.028 27.9787 129.108 27.7547 129.268 27.5841C129.438 27.4134 129.657 27.3281 129.924 27.3281H130.084C130.404 27.3281 130.654 27.4241 130.836 27.6161C131.017 27.7974 131.118 28.0587 131.14 28.4001Z" fill="white"/>
<path d="M141.012 28.5121L139.22 36.9921C139.124 37.6641 138.756 38.0001 138.116 38.0001H137.972C137.748 38.0001 137.556 37.9254 137.396 37.7761C137.236 37.6161 137.156 37.4294 137.156 37.2161C137.156 37.0987 137.172 36.9654 137.204 36.8161L138.996 28.3361C139.092 27.6641 139.46 27.3281 140.1 27.3281H140.244C140.458 27.3281 140.644 27.4081 140.804 27.5681C140.975 27.7174 141.06 27.8934 141.06 28.0961C141.06 28.2347 141.044 28.3734 141.012 28.5121Z" fill="white"/>
<path d="M144.63 29.0241L144.054 31.7921H148.054C148.662 31.7921 148.966 32.0427 148.966 32.5441C148.966 33.0454 148.662 33.2961 148.054 33.2961H143.734L143.094 36.3041H147.35C147.926 36.3041 148.214 36.5387 148.214 37.0081C148.214 37.0827 148.208 37.1307 148.198 37.1521V37.1841C148.048 37.7814 147.643 38.0534 146.982 38.0001H141.894C141.584 38.0001 141.339 37.9307 141.158 37.7921C140.976 37.6534 140.886 37.4667 140.886 37.2321C140.886 37.1041 140.902 36.9654 140.934 36.8161L142.726 28.3361C142.832 27.6214 143.254 27.2854 143.99 27.3281H149.222C149.787 27.3281 150.07 27.5627 150.07 28.0321C150.07 28.0961 150.064 28.1441 150.054 28.1761V28.2081C149.926 28.8054 149.52 29.0774 148.838 29.0241H144.63Z" fill="white"/>
<path d="M158.161 36.8801L157.905 32.5281C157.873 31.6534 157.857 30.7254 157.857 29.7441C157.26 31.0241 156.828 31.9521 156.561 32.5281L154.321 37.1041C154.172 37.4454 153.985 37.6854 153.761 37.8241C153.548 37.9627 153.255 38.0214 152.881 38.0001H152.017C151.644 38.0107 151.356 37.9201 151.153 37.7281C150.951 37.5254 150.855 37.2374 150.865 36.8641L150.465 28.5121V28.3681C150.465 28.0481 150.545 27.7974 150.705 27.6161C150.876 27.4241 151.111 27.3281 151.409 27.3281H151.521C151.841 27.3281 152.092 27.4347 152.273 27.6481C152.455 27.8507 152.54 28.1227 152.529 28.4641L152.769 33.1841C152.78 33.3867 152.785 34.0481 152.785 35.1681V36.4161C152.999 35.9681 153.228 35.4721 153.473 34.9281C153.836 34.1494 154.113 33.5681 154.305 33.1841L156.737 28.2241C156.887 27.8934 157.063 27.6587 157.265 27.5201C157.468 27.3814 157.74 27.3174 158.081 27.3281H158.561C158.903 27.3281 159.164 27.4294 159.345 27.6321C159.537 27.8241 159.633 28.0961 159.633 28.4481L159.921 33.1841C159.943 33.5574 159.964 34.1761 159.985 35.0401C160.017 35.7014 160.039 36.1601 160.049 36.4161C160.689 34.8694 161.159 33.7921 161.457 33.1841L163.841 28.2401C164.076 27.6321 164.497 27.3281 165.105 27.3281H165.313C165.495 27.3281 165.649 27.3921 165.777 27.5201C165.905 27.6481 165.969 27.7974 165.969 27.9681C165.969 28.0534 165.927 28.1974 165.841 28.4001L161.649 37.0881C161.511 37.4401 161.329 37.6854 161.105 37.8241C160.892 37.9627 160.599 38.0214 160.225 38.0001H159.329C158.551 38.0321 158.161 37.6587 158.161 36.8801Z" fill="white"/>
</svg>
